# xmcd
#
# Track frame offsets:
#	150
#	18278
#	33751
#	54162
#	69752
#	86620
#	104961
#	122414
#	136837
#	155283
#	170045
#	193201
#	211137
#	228851
#	243331
#	262470
#	279371
#
# Disc length: 3968 seconds
#
# Revision: 1
# Processed by: cddbd v1.5.2PL0 Copyright (c) Steve Scherf et al.
# Submitted via: audiograbber 1.83.01
#
DISCID=e40f7e11
DTITLE=Chartbuster 5124-02R 2009 Country Hits - Chartbuster ESP503-02R 2009 Cou
DTITLE=ntry Hits
DYEAR=2009
DGENRE=Karaoke
TTITLE0=Keith Urban - Sweet Thing
TTITLE1=Matt Stillwell - Shine
TTITLE2=Dolly Parton - Drives Me Crazy
TTITLE3=Phil Vassar - Prayers Of A Common Man
TTITLE4=Rodney Atkins - It's America
TTITLE5=Taylor Swift - White Horse
TTITLE6=Randy Rogers Band - In My Arms Instead
TTITLE7=Alan Jackson - Sissy's Song
TTITLE8=Martina McBride - Ride
TTITLE9=Dierks Bentley - Sideways
TTITLE10=Wynonna - Sing
TTITLE11=Craig Morgan - God Must Really Love Me
TTITLE12=Jessica Simpson - Pray Out Loud
TTITLE13=Kenny Chesney - Down The Road (ft Mac McAnally)
TTITLE14=Tim McGraw - Nothin' To Die For
TTITLE15=Caitlin and Will - Address In The Stars
TTITLE16=Rascal Flatts - Here
EXTD=These discs carry both numbers 5124 and ESP503.
EXTT0=
EXTT1=
EXTT2=
EXTT3=
EXTT4=
EXTT5=
EXTT6=
EXTT7=
EXTT8=
EXTT9=
EXTT10=
EXTT11=
EXTT12=
EXTT13=
EXTT14=
EXTT15=
EXTT16=
PLAYORDER=
